<svg xmlns="http://www.w3.org/2000/svg" version="1.0" width="1714.000000pt" height="1714.000000pt" viewBox="0 0 1714.000000 1714.000000" preserveAspectRatio="xMidYMid meet">

<g transform="translate(0.000000,1714.000000) scale(0.100000,-0.100000)" fill="#ffca00" stroke="none">
<path d="M6619 9610 c-187 -33 -289 -198 -226 -362 33 -86 80 -112 295 -164 193 -46 212 -57 212 -125 0 -76 -75 -115 -202 -107 -99 8 -134 33 -162 121 -5 14 -18 17 -91 17 -97 0 -96 1 -69 -89 30 -102 123 -170 264 -192 184 -28 349 34 413 155 27 52 30 175 5 221 -42 77 -94 105 -286 151 -169 41 -205 55 -221 90 -35 78 29 137 149 137 93 0 158 -40 174 -105 6 -28 7 -28 91 -28 97 0 96 -2 69 91 -21 70 -88 138 -167 167 -63 24 -181 35 -248 22z" fill="#ffca00"/>
<path d="M4232 9579 c-26 -13 -55 -39 -70 -62 -24 -35 -27 -52 -30 -143 l-4 -104 86 0 86 0 0 75 0 75 -37 1 c-21 1 -41 1 -45 0 -5 0 -8 12 -8 28 0 27 18 51 62 84 21 15 32 67 15 67 -7 0 -31 -10 -55 -21z" fill="#ffca00"/>
<path d="M4531 9589 c-89 -36 -120 -94 -121 -226 l0 -93 85 0 85 0 0 74 0 75 -47 3 c-41 3 -48 6 -45 23 5 35 23 61 53 79 22 13 29 25 29 47 0 31 -3 33 -39 18z" fill="#ffca00"/>
<path d="M4700 9586 c0 -3 64 -121 143 -263 l142 -258 5 -170 5 -170 87 -3 87 -3 3 168 3 168 66 120 c37 66 95 174 129 240 35 66 69 129 77 140 7 11 13 23 13 27 0 5 -46 8 -102 8 l-103 -1 -44 -102 c-25 -56 -63 -140 -85 -187 l-39 -85 -90 188 -90 187 -104 0 c-56 0 -103 -2 -103 -4z" fill="#ffca00"/>
<path d="M5590 9155 l0 -435 328 2 327 3 3 78 3 77 -241 0 -240 0 0 110 0 110 210 0 210 0 0 75 0 75 -210 0 -210 0 0 95 0 95 230 0 230 0 0 75 0 75 -320 0 -320 0 0 -435z" fill="#ffca00"/>
<path d="M7590 9155 l0 -436 88 3 87 3 3 183 2 182 190 0 190 0 0 75 0 75 -190 0 -190 0 0 100 0 100 220 0 220 0 0 75 0 75 -310 0 -310 0 0 -435z" fill="#ffca00"/>
<path d="M8340 9278 c0 -343 6 -386 56 -456 58 -80 146 -117 284 -116 123 0 191 20 255 76 88 78 89 84 93 471 l3 337 -90 0 -91 0 0 -285 c0 -318 -6 -368 -51 -411 -28 -27 -35 -29 -114 -29 -78 0 -86 2 -113 28 -47 45 -52 87 -52 406 l0 291 -90 0 -90 0 0 -312z" fill="#ffca00"/>
<path d="M9156 9574 c-3 -9 -6 -42 -6 -75 l0 -58 133 -3 132 -3 2 -355 3 -355 87 0 88 0 3 358 2 357 130 0 130 0 0 75 0 75 -349 0 c-309 0 -350 -2 -355 -16z" fill="#ffca00"/>
<path d="M9982 9263 c5 -361 8 -382 69 -456 113 -138 444 -138 557 -2 60 74 65 107 70 463 l4 322 -96 0 -96 0 0 -307 c0 -281 -2 -312 -19 -350 -25 -54 -62 -73 -143 -73 -69 0 -117 21 -140 62 -10 17 -14 105 -18 343 l-5 320 -93 3 -93 3 3 -328z" fill="#ffca00"/>
<path d="M10872 9158 l3 -433 88 -3 87 -3 0 171 0 170 121 0 c66 0 129 -5 139 -10 34 -18 44 -52 51 -175 4 -66 10 -127 14 -136 5 -14 24 -17 106 -18 105 -1 116 4 82 42 -14 15 -19 45 -24 145 -6 142 -19 180 -71 212 l-30 18 30 16 c41 21 69 63 86 130 30 114 -17 225 -119 279 -38 21 -56 22 -303 25 l-262 3 2 -433z m458 267 c38 -20 50 -43 50 -100 0 -97 -32 -115 -205 -115 l-125 0 0 115 0 115 125 0 c93 0 134 -4 155 -15z" fill="#ffca00"/>
<path d="M11752 9158 l3 -433 325 0 325 0 3 78 3 77 -241 0 -240 0 0 110 0 110 210 0 210 0 0 75 0 75 -210 0 -210 0 0 95 0 95 230 0 230 0 0 75 0 75 -320 0 -320 0 2 -432z" fill="#ffca00"/>
<path d="M12550 9510 l0 -80 45 0 c38 0 45 -3 45 -19 0 -24 -44 -78 -70 -86 -14 -4 -20 -15 -20 -36 0 -16 4 -29 9 -29 23 0 68 23 94 48 47 44 59 78 64 183 l6 99 -87 0 -86 0 0 -80z" fill="#ffca00"/>
<path d="M12830 9510 l0 -80 45 0 c29 0 45 -4 45 -12 0 -25 -40 -79 -65 -88 -19 -7 -25 -17 -25 -40 0 -16 4 -30 9 -30 22 0 79 31 102 57 37 40 49 84 49 184 l0 89 -80 0 -80 0 0 -80z" fill="#ffca00"/>
<path d="M1957 8160 c-204 -52 -319 -264 -287 -530 19 -151 101 -280 214 -335 98 -48 281 -50 384 -5 96 43 183 157 212 279 16 67 16 225 0 294 -29 123 -110 225 -218 275 -48 22 -74 26 -162 28 -58 2 -122 -1 -143 -6z m233 -171 c51 -29 95 -95 111 -163 18 -83 8 -232 -20 -286 -47 -91 -107 -130 -201 -130 -131 0 -211 84 -231 244 -22 174 44 319 161 355 51 15 133 6 180 -20z" fill="#ffca00"/>
<path d="M2835 8156 c-71 -18 -108 -40 -149 -88 -73 -85 -84 -211 -26 -301 41 -65 82 -83 290 -131 170 -40 200 -58 200 -124 0 -78 -113 -126 -240 -102 -65 12 -106 47 -121 102 l-10 38 -86 0 -86 0 6 -51 c17 -142 132 -226 322 -236 122 -7 194 7 266 50 170 102 166 352 -7 428 -22 10 -110 35 -194 55 -128 31 -159 41 -182 65 -70 70 1 159 127 158 95 0 160 -37 171 -95 l6 -34 89 0 c100 0 98 -3 73 79 -21 71 -77 131 -157 167 -51 23 -78 28 -152 31 -51 1 -112 -3 -140 -11z" fill="#ffca00"/>
<path d="M7154 8159 c-69 -16 -145 -69 -178 -123 -39 -62 -48 -162 -22 -231 33 -86 97 -121 311 -170 135 -31 168 -45 191 -81 14 -21 15 -31 5 -63 -6 -22 -23 -46 -37 -56 -62 -40 -217 -38 -274 4 -14 10 -32 38 -41 62 l-17 44 -83 0 -84 0 3 -35 c7 -95 64 -170 165 -216 59 -27 69 -29 197 -29 117 0 141 3 181 21 67 31 123 86 149 146 32 74 25 172 -17 231 -41 59 -91 83 -269 128 -180 45 -211 59 -221 97 -20 78 39 132 144 132 95 0 165 -40 178 -101 l7 -29 84 0 84 0 0 33 c0 44 -44 130 -83 163 -62 52 -133 76 -237 80 -52 2 -113 -1 -136 -7z" fill="#ffca00"/>
<path d="M890 8149 c0 -2 -1 -199 -3 -437 l-2 -432 93 0 92 0 0 154 0 154 138 4 c155 6 207 20 261 71 44 42 60 82 67 171 12 142 -30 232 -132 282 -58 28 -60 29 -286 32 -125 3 -228 3 -228 1z m416 -172 c50 -26 68 -103 40 -171 -21 -50 -65 -66 -180 -66 l-96 0 0 131 0 132 103 -5 c67 -3 113 -10 133 -21z" fill="#ffca00"/>
<path d="M3477 8143 c-4 -3 -7 -199 -7 -435 l0 -428 90 0 90 0 0 435 0 435 -83 0 c-46 0 -87 -3 -90 -7z" fill="#ffca00"/>
<path d="M3777 8143 c-4 -3 -7 -39 -7 -80 l0 -73 130 0 130 0 0 -355 0 -356 93 3 92 3 3 353 2 352 124 0 124 0 4 76 c2 42 1 78 -1 80 -7 7 -687 4 -694 -3z" fill="#ffca00"/>
<path d="M4597 8143 c-4 -3 -7 -199 -7 -435 l0 -428 90 0 90 0 0 435 0 435 -83 0 c-46 0 -87 -3 -90 -7z" fill="#ffca00"/>
<path d="M4900 8141 c0 -4 65 -199 144 -432 l144 -424 87 0 88 0 43 125 c23 69 87 259 143 422 56 164 101 302 101 308 0 7 -32 10 -91 8 l-92 -3 -91 -317 c-50 -174 -94 -319 -97 -322 -4 -4 -91 291 -181 612 l-9 32 -94 0 c-52 0 -95 -4 -95 -9z" fill="#ffca00"/>
<path d="M5787 8143 c-4 -3 -7 -199 -7 -435 l0 -428 330 0 330 0 0 75 0 75 -222 1 c-123 1 -230 2 -238 3 -12 1 -16 22 -18 114 l-3 112 211 0 210 0 0 75 0 75 -210 0 -210 0 0 90 0 90 230 0 230 0 0 80 0 80 -313 0 c-173 0 -317 -3 -320 -7z" fill="#ffca00"/>
<path d="M7792 7813 l3 -338 30 -60 c33 -66 90 -116 153 -136 20 -6 83 -14 138 -16 173 -9 271 37 329 152 l30 60 3 338 3 337 -90 0 -90 0 -3 -317 c-3 -299 -4 -320 -23 -353 -26 -45 -77 -70 -140 -70 -63 0 -114 25 -140 70 -19 33 -20 55 -23 351 l-3 316 -90 2 -90 2 3 -338z" fill="#ffca00"/>
<path d="M8680 7716 l0 -436 90 0 90 0 0 154 0 154 143 3 c134 4 145 6 202 34 47 23 67 41 90 79 26 42 30 60 33 142 7 148 -34 228 -140 275 -49 21 -69 23 -280 27 l-228 4 0 -436z m380 275 c65 -13 90 -46 90 -121 0 -52 -4 -64 -29 -92 l-29 -33 -116 -3 -116 -4 0 131 0 131 78 0 c42 -1 97 -5 122 -9z" fill="#ffca00"/>
<path d="M9480 7715 l0 -435 330 0 330 0 0 75 0 75 -240 0 -240 0 0 115 0 115 210 0 210 0 0 75 0 75 -210 0 -210 0 0 90 0 90 228 2 227 3 0 75 0 75 -317 3 -318 2 0 -435z" fill="#ffca00"/>
<path d="M10300 7716 l0 -436 85 0 85 0 0 170 0 170 110 0 c111 0 168 -13 186 -41 4 -8 11 -66 15 -129 4 -63 10 -127 14 -142 l7 -28 99 0 c104 0 115 6 83 42 -13 13 -18 48 -24 145 -4 71 -12 139 -19 153 -7 14 -28 36 -47 49 l-35 24 33 19 c72 41 111 146 89 240 -18 79 -56 128 -126 163 l-60 30 -247 4 -248 3 0 -436z m458 260 c61 -31 66 -147 9 -190 -26 -19 -42 -21 -160 -21 l-132 0 -3 104 c-1 58 0 111 3 119 8 21 238 11 283 -12z" fill="#ffca00"/>
<path d="M11170 7715 l0 -435 85 0 85 0 1 353 0 352 60 -260 c32 -143 68 -302 80 -352 l21 -93 88 0 88 0 21 93 c11 50 43 193 71 317 28 124 54 241 59 260 6 22 9 -92 10 -317 l1 -353 85 0 85 0 0 435 0 435 -129 0 c-115 0 -130 -2 -135 -17 -3 -10 -30 -128 -61 -263 -30 -135 -63 -278 -72 -317 -9 -40 -19 -70 -22 -68 -3 3 -39 153 -81 333 l-75 327 -133 3 -132 3 0 -436z" fill="#ffca00"/>
<path d="M12292 7723 c-84 -236 -152 -431 -152 -435 0 -5 42 -8 93 -8 l94 0 28 90 27 90 161 -2 160 -3 26 -85 27 -85 97 -3 c53 -1 97 0 97 4 0 4 -59 174 -131 378 -72 204 -140 397 -151 429 l-20 57 -101 0 -102 0 -153 -427z m358 -105 c0 -5 -49 -8 -109 -8 l-109 0 56 168 56 167 52 -160 c29 -88 53 -163 54 -167z" fill="#ffca00"/>
<path d="M13088 8144 c-5 -4 -8 -200 -8 -436 l0 -428 90 0 90 0 0 170 0 170 109 0 c120 0 160 -9 180 -43 9 -13 17 -69 22 -142 4 -66 10 -128 14 -137 6 -16 21 -18 106 -18 54 0 99 1 99 3 0 1 -9 20 -20 42 -16 31 -20 59 -20 135 0 125 -11 161 -62 205 -23 19 -37 35 -31 35 23 0 77 56 96 99 55 124 0 269 -122 324 -42 19 -68 22 -291 25 -135 2 -248 0 -252 -4z m417 -154 c58 -13 85 -49 85 -113 0 -98 -36 -117 -217 -117 l-113 0 0 120 0 120 103 0 c56 0 120 -5 142 -10z" fill="#ffca00"/>
<path d="M13960 7715 l0 -435 90 0 90 0 0 145 0 146 38 41 c22 23 44 38 49 35 9 -5 141 -189 245 -339 19 -28 20 -28 134 -28 63 0 114 2 114 5 0 2 -81 114 -180 249 -99 134 -180 248 -180 252 0 5 77 86 170 179 94 93 170 173 170 177 0 5 -49 8 -109 8 l-110 0 -88 -92 c-48 -51 -125 -131 -170 -178 l-83 -85 0 178 0 177 -90 0 -90 0 0 -435z" fill="#ffca00"/>
<path d="M14850 7715 l0 -435 330 0 330 0 0 75 0 75 -240 0 -240 0 0 115 0 115 210 0 210 0 0 75 0 75 -210 0 -210 0 0 90 0 90 228 2 227 3 0 75 0 75 -317 3 -318 2 0 -435z" fill="#ffca00"/>
<path d="M15607 8143 c-4 -3 -7 -39 -7 -80 l0 -73 130 0 130 0 0 -355 0 -355 95 0 95 0 0 355 0 354 128 3 127 3 0 75 0 75 -346 3 c-190 1 -348 -1 -352 -5z" fill="#ffca00"/>
</g>
</svg>