<svg xmlns="http://www.w3.org/2000/svg" version="1.0" width="300.000000pt" height="222.000000pt" viewBox="0 0 300.000000 222.000000" preserveAspectRatio="xMidYMid meet">

<g transform="translate(0.000000,222.000000) scale(0.100000,-0.100000)" fill="#ffca00" stroke="none">
<path d="M1493 2203 c9 -2 23 -2 30 0 6 3 -1 5 -18 5 -16 0 -22 -2 -12 -5z" fill="#ffca00"/>
<path d="M1770 2160 c30 -5 71 -8 90 -8 l35 0 -40 9 c-22 4 -62 7 -90 7 l-50 -1 55 -7z" fill="#ffca00"/>
<path d="M1423 2133 c9 -2 25 -2 35 0 9 3 1 5 -18 5 -19 0 -27 -2 -17 -5z" fill="#ffca00"/>
<path d="M1708 2123 c7 -3 16 -2 19 1 4 3 -2 6 -13 5 -11 0 -14 -3 -6 -6z" fill="#ffca00"/>
<path d="M1813 2113 c20 -2 54 -2 75 0 20 2 3 4 -38 4 -41 0 -58 -2 -37 -4z" fill="#ffca00"/>
<path d="M1033 2103 c9 -2 23 -2 30 0 6 3 -1 5 -18 5 -16 0 -22 -2 -12 -5z" fill="#ffca00"/>
<path d="M1325 2100 c28 -5 66 -8 85 -8 28 1 25 2 -15 8 -27 5 -66 8 -85 8 -28 -1 -25 -2 15 -8z" fill="#ffca00"/>
<path d="M1458 2083 c6 -2 18 -2 25 0 6 3 1 5 -13 5 -14 0 -19 -2 -12 -5z" fill="#ffca00"/>
<path d="M1703 2083 c15 -2 39 -2 55 0 15 2 2 4 -28 4 -30 0 -43 -2 -27 -4z" fill="#ffca00"/>
<path d="M1285 2071 c31 -9 102 -14 94 -7 -2 2 -31 6 -64 9 -39 4 -50 3 -30 -2z" fill="#ffca00"/>
<path d="M1828 2073 c17 -2 47 -2 65 0 17 2 3 4 -33 4 -36 0 -50 -2 -32 -4z" fill="#ffca00"/>
<path d="M941 2066 c2 -2 31 -6 64 -9 39 -4 50 -3 30 2 -31 9 -102 14 -94 7z" fill="#ffca00"/>
<path d="M1403 2053 c9 -2 23 -2 30 0 6 3 -1 5 -18 5 -16 0 -22 -2 -12 -5z" fill="#ffca00"/>
<path d="M1733 2043 c15 -2 39 -2 55 0 15 2 2 4 -28 4 -30 0 -43 -2 -27 -4z" fill="#ffca00"/>
<path d="M1295 2029 c22 -4 51 -8 65 -7 23 0 22 1 -5 8 -16 4 -46 8 -65 8 l-35 0 40 -9z" fill="#ffca00"/>
<path d="M1873 2033 c15 -2 39 -2 55 0 15 2 2 4 -28 4 -30 0 -43 -2 -27 -4z" fill="#ffca00"/>
<path d="M1643 2013 c9 -2 23 -2 30 0 6 3 -1 5 -18 5 -16 0 -22 -2 -12 -5z" fill="#ffca00"/>
<path d="M988 2003 c12 -2 30 -2 40 0 9 3 -1 5 -23 4 -22 0 -30 -2 -17 -4z" fill="#ffca00"/>
<path d="M1218 2003 c7 -3 16 -2 19 1 4 3 -2 6 -13 5 -11 0 -14 -3 -6 -6z" fill="#ffca00"/>
<path d="M1723 2003 c15 -2 39 -2 55 0 15 2 2 4 -28 4 -30 0 -43 -2 -27 -4z" fill="#ffca00"/>
<path d="M1273 1993 c9 -2 23 -2 30 0 6 3 -1 5 -18 5 -16 0 -22 -2 -12 -5z" fill="#ffca00"/>
<path d="M1843 1993 c15 -2 37 -2 50 0 12 2 0 4 -28 4 -27 0 -38 -2 -22 -4z" fill="#ffca00"/>
<path d="M2028 1983 c6 -2 18 -2 25 0 6 3 1 5 -13 5 -14 0 -19 -2 -12 -5z" fill="#ffca00"/>
<path d="M1655 1970 c31 -8 182 -13 174 -6 -2 2 -49 5 -104 8 -55 3 -86 2 -70 -2z" fill="#ffca00"/>
<path d="M798 1963 c12 -2 30 -2 40 0 9 3 -1 5 -23 4 -22 0 -30 -2 -17 -4z" fill="#ffca00"/>
<path d="M951 1959 c13 -8 97 -13 88 -5 -2 2 -26 6 -53 9 -30 3 -43 1 -35 -4z" fill="#ffca00"/>
<path d="M1263 1963 c9 -2 25 -2 35 0 9 3 1 5 -18 5 -19 0 -27 -2 -17 -5z" fill="#ffca00"/>
<path d="M1515 1895 c-26 -30 -54 -57 -63 -60 -17 -6 -72 -78 -72 -95 0 -23 21 -18 34 9 9 16 43 58 76 92 l60 62 -6 -39 c-3 -21 -8 -46 -9 -54 -2 -8 -4 -23 -4 -32 -1 -9 -9 -19 -18 -21 -14 -4 -15 -5 -2 -6 21 -1 13 -58 -10 -64 -14 -4 -14 -5 2 -6 9 0 17 -4 18 -8 1 -5 2 -21 4 -38 1 -16 3 -30 4 -30 3 0 8 -23 14 -77 5 -38 3 -48 -11 -51 -15 -4 -15 -5 1 -6 9 0 17 -5 17 -10 0 -5 3 -16 6 -25 10 -25 -18 -19 -46 10 -14 15 -50 83 -80 152 -45 104 -59 127 -80 133 -20 6 -21 7 -5 8 19 1 18 2 -3 24 l-23 22 -65 -67 c-37 -38 -70 -68 -74 -68 -4 0 -26 -24 -49 -53 -29 -38 -52 -57 -78 -65 -29 -9 -51 -29 -96 -87 -33 -43 -67 -77 -80 -79 -76 -16 -384 -95 -347 -90 25 4 55 7 67 8 12 0 25 4 29 8 4 4 18 5 32 1 17 -4 23 -2 18 6 -5 7 4 11 28 11 19 0 38 5 41 10 10 17 43 11 95 -15 60 -31 66 -26 9 8 -40 24 -40 25 -15 31 13 3 36 2 51 -4 36 -14 42 -13 19 5 -18 14 -18 14 9 15 15 0 50 -11 77 -25 61 -31 67 -24 8 7 l-43 23 37 3 c20 2 53 -4 74 -13 20 -8 39 -13 42 -10 3 3 -9 10 -27 16 -18 6 -29 14 -26 17 9 9 75 3 99 -9 20 -10 20 -10 2 5 -19 15 -18 16 15 16 20 0 58 -11 85 -25 45 -22 40 -13 -12 23 -35 24 62 6 98 -18 l33 -22 -27 24 c-16 13 -28 27 -28 31 0 9 46 -1 85 -20 l30 -14 -25 20 -25 21 23 0 c33 0 83 -23 128 -60 38 -31 37 -31 -3 8 -24 22 -43 42 -43 45 0 12 93 -23 128 -48 l37 -26 -39 35 c-35 32 -37 36 -17 36 12 0 30 -4 39 -9 12 -6 23 -3 35 9 17 17 17 17 -9 12 -22 -4 -26 -2 -21 12 4 9 1 16 -6 17 -7 0 -3 4 8 9 14 6 15 9 5 9 -9 1 -16 10 -16 21 0 13 5 19 14 15 7 -2 10 0 7 5 -3 6 -14 10 -23 11 -10 0 -12 3 -5 5 7 3 9 12 6 20 -4 12 0 13 23 3 16 -5 36 -17 45 -25 14 -12 17 -11 27 11 6 14 18 25 25 25 7 0 23 20 35 45 l21 44 -23 53 c-16 35 -35 59 -56 72 -55 32 -101 78 -132 133 -16 29 -31 53 -33 53 -2 0 -24 -25 -50 -55z m158 -181 c26 -25 35 -39 27 -44 -8 -5 -7 -9 3 -13 9 -3 14 -14 12 -24 -2 -10 -4 -21 -4 -25 -1 -11 -72 -1 -85 12 -5 5 -12 37 -14 70 -5 72 5 77 61 24z m-353 17 c0 -5 -7 -16 -15 -24 -8 -8 -11 -17 -8 -20 11 -12 -8 -57 -25 -58 -16 -1 -16 -2 1 -6 19 -5 24 -23 6 -23 -8 0 -8 -4 1 -15 6 -8 9 -19 5 -25 -3 -5 -1 -10 5 -10 7 0 10 -7 6 -15 -3 -8 -2 -15 3 -15 4 0 8 -7 8 -15 0 -8 -3 -15 -7 -15 -4 0 -5 -10 -3 -22 2 -13 0 -28 -5 -35 -4 -7 -64 -19 -142 -28 -74 -8 -153 -18 -174 -21 -45 -8 -45 -9 16 73 40 53 54 63 91 63 15 1 35 19 62 55 22 30 47 57 55 60 8 3 34 27 58 55 41 47 62 61 62 41z m47 -25 c-3 -8 -1 -17 6 -20 7 -2 1 -5 -12 -5 -16 -1 -21 3 -18 13 3 8 1 17 -6 20 -7 2 -1 5 12 5 16 1 21 -3 18 -13z m8 -46 c3 -5 -1 -10 -9 -10 -8 0 -18 5 -21 10 -3 6 1 10 9 10 8 0 18 -4 21 -10z m20 -30 c3 -5 -2 -10 -12 -11 -12 0 -9 -4 10 -11 38 -14 34 -29 -5 -16 -37 12 -59 28 -39 28 7 0 9 5 6 10 -3 6 3 10 14 10 11 0 23 -4 26 -10z m12 -55 c20 -8 34 -18 31 -21 -7 -7 -88 19 -88 28 0 12 17 10 57 -7z m15 -42 c35 -14 38 -18 22 -24 -16 -6 -16 -8 -2 -8 9 -1 20 -6 24 -12 4 -8 -4 -9 -27 -5 -33 5 -33 5 4 -7 21 -7 38 -17 37 -21 -1 -5 4 -12 11 -17 22 -13 4 -20 -24 -10 -14 6 -27 6 -29 1 -2 -4 -15 -6 -30 -3 -15 3 -25 9 -22 14 3 5 -1 10 -8 10 -7 1 1 5 17 9 23 6 25 8 8 9 -27 1 -42 21 -16 21 14 0 15 2 4 9 -11 7 -9 10 10 14 22 4 21 5 -8 12 -18 4 -33 11 -33 16 0 13 14 11 62 -8z" fill="#ffca00"/>
<path d="M1208 1503 c7 -3 16 -2 19 1 4 3 -2 6 -13 5 -11 0 -14 -3 -6 -6z" fill="#ffca00"/>
<path d="M1248 1443 c6 -2 18 -2 25 0 6 3 1 5 -13 5 -14 0 -19 -2 -12 -5z" fill="#ffca00"/>
<path d="M1438 1453 c7 -3 16 -2 19 1 4 3 -2 6 -13 5 -11 0 -14 -3 -6 -6z" fill="#ffca00"/>
<path d="M1951 1946 c2 -2 29 -6 59 -9 36 -4 46 -3 30 3 -25 8 -97 13 -89 6z" fill="#ffca00"/>
<path d="M1225 1930 c17 -4 48 -8 70 -8 l40 0 -40 9 c-22 4 -53 8 -70 7 l-30 0 30 -8z" fill="#ffca00"/>
<path d="M1703 1923 c15 -2 37 -2 50 0 12 2 0 4 -28 4 -27 0 -38 -2 -22 -4z" fill="#ffca00"/>
<path d="M803 1913 c9 -2 25 -2 35 0 9 3 1 5 -18 5 -19 0 -27 -2 -17 -5z" fill="#ffca00"/>
<path d="M2213 1913 c9 -2 23 -2 30 0 6 3 -1 5 -18 5 -16 0 -22 -2 -12 -5z" fill="#ffca00"/>
<path d="M978 1903 c12 -2 30 -2 40 0 9 3 -1 5 -23 4 -22 0 -30 -2 -17 -4z" fill="#ffca00"/>
<path d="M1888 1903 c7 -3 16 -2 19 1 4 3 -2 6 -13 5 -11 0 -14 -3 -6 -6z" fill="#ffca00"/>
<path d="M788 1883 c12 -2 32 -2 45 0 12 2 2 4 -23 4 -25 0 -35 -2 -22 -4z" fill="#ffca00"/>
<path d="M1183 1883 c9 -2 23 -2 30 0 6 3 -1 5 -18 5 -16 0 -22 -2 -12 -5z" fill="#ffca00"/>
<path d="M2108 1883 c12 -2 32 -2 45 0 12 2 2 4 -23 4 -25 0 -35 -2 -22 -4z" fill="#ffca00"/>
<path d="M940 1871 c8 -5 35 -11 60 -15 30 -4 36 -3 20 3 -41 13 -97 22 -80 12z" fill="#ffca00"/>
<path d="M1238 1873 c6 -2 18 -2 25 0 6 3 1 5 -13 5 -14 0 -19 -2 -12 -5z" fill="#ffca00"/>
<path d="M1713 1873 c15 -2 37 -2 50 0 12 2 0 4 -28 4 -27 0 -38 -2 -22 -4z" fill="#ffca00"/>
<path d="M1808 1863 c12 -2 30 -2 40 0 9 3 -1 5 -23 4 -22 0 -30 -2 -17 -4z" fill="#ffca00"/>
<path d="M2338 1863 c7 -3 16 -2 19 1 4 3 -2 6 -13 5 -11 0 -14 -3 -6 -6z" fill="#ffca00"/>
<path d="M1123 1853 c9 -2 25 -2 35 0 9 3 1 5 -18 5 -19 0 -27 -2 -17 -5z" fill="#ffca00"/>
<path d="M2033 1853 c15 -2 39 -2 55 0 15 2 2 4 -28 4 -30 0 -43 -2 -27 -4z" fill="#ffca00"/>
<path d="M1193 1843 c9 -2 23 -2 30 0 6 3 -1 5 -18 5 -16 0 -22 -2 -12 -5z" fill="#ffca00"/>
<path d="M648 1833 c7 -3 16 -2 19 1 4 3 -2 6 -13 5 -11 0 -14 -3 -6 -6z" fill="#ffca00"/>
<path d="M803 1833 c9 -2 25 -2 35 0 9 3 1 5 -18 5 -19 0 -27 -2 -17 -5z" fill="#ffca00"/>
<path d="M1733 1823 c9 -2 23 -2 30 0 6 3 -1 5 -18 5 -16 0 -22 -2 -12 -5z" fill="#ffca00"/>
<path d="M2373 1823 c9 -2 25 -2 35 0 9 3 1 5 -18 5 -19 0 -27 -2 -17 -5z" fill="#ffca00"/>
<path d="M963 1813 c9 -2 25 -2 35 0 9 3 1 5 -18 5 -19 0 -27 -2 -17 -5z" fill="#ffca00"/>
<path d="M1108 1813 c7 -3 16 -2 19 1 4 3 -2 6 -13 5 -11 0 -14 -3 -6 -6z" fill="#ffca00"/>
<path d="M1358 1813 c7 -3 16 -2 19 1 4 3 -2 6 -13 5 -11 0 -14 -3 -6 -6z" fill="#ffca00"/>
<path d="M1998 1813 c12 -2 32 -2 45 0 12 2 2 4 -23 4 -25 0 -35 -2 -22 -4z" fill="#ffca00"/>
<path d="M1153 1803 c9 -2 23 -2 30 0 6 3 -1 5 -18 5 -16 0 -22 -2 -12 -5z" fill="#ffca00"/>
<path d="M2123 1803 c9 -2 25 -2 35 0 9 3 1 5 -18 5 -19 0 -27 -2 -17 -5z" fill="#ffca00"/>
<path d="M591 1796 c2 -2 31 -6 64 -9 38 -4 53 -3 40 3 -19 8 -113 14 -104 6z" fill="#ffca00"/>
<path d="M793 1783 c9 -2 23 -2 30 0 6 3 -1 5 -18 5 -16 0 -22 -2 -12 -5z" fill="#ffca00"/>
<path d="M2298 1783 c18 -2 45 -2 60 0 15 2 0 4 -33 4 -33 0 -45 -2 -27 -4z" fill="#ffca00"/>
<path d="M911 1776 c2 -2 27 -6 54 -9 34 -4 42 -3 25 3 -25 8 -87 13 -79 6z" fill="#ffca00"/>
<path d="M1128 1763 c12 -2 30 -2 40 0 9 3 -1 5 -23 4 -22 0 -30 -2 -17 -4z" fill="#ffca00"/>
<path d="M1908 1763 c7 -3 16 -2 19 1 4 3 -2 6 -13 5 -11 0 -14 -3 -6 -6z" fill="#ffca00"/>
<path d="M2013 1763 c15 -2 39 -2 55 0 15 2 2 4 -28 4 -30 0 -43 -2 -27 -4z" fill="#ffca00"/>
<path d="M591 1756 c2 -2 31 -6 64 -9 39 -4 50 -3 30 2 -31 9 -102 14 -94 7z" fill="#ffca00"/>
<path d="M2111 1756 c2 -2 60 -6 129 -9 79 -3 107 -2 75 3 -50 8 -212 13 -204 6z" fill="#ffca00"/>
<path d="M823 1733 c9 -2 23 -2 30 0 6 3 -1 5 -18 5 -16 0 -22 -2 -12 -5z" fill="#ffca00"/>
<path d="M2393 1733 c9 -2 25 -2 35 0 9 3 1 5 -18 5 -19 0 -27 -2 -17 -5z" fill="#ffca00"/>
<path d="M938 1723 c12 -2 30 -2 40 0 9 3 -1 5 -23 4 -22 0 -30 -2 -17 -4z" fill="#ffca00"/>
<path d="M1095 1720 c17 -4 44 -8 60 -8 l30 0 -30 8 c-16 4 -43 8 -60 8 l-30 0 30 -8z" fill="#ffca00"/>
<path d="M648 1713 c12 -2 32 -2 45 0 12 2 2 4 -23 4 -25 0 -35 -2 -22 -4z" fill="#ffca00"/>
<path d="M2255 1710 c61 -5 130 -11 155 -14 39 -5 41 -4 15 5 -16 5 -86 11 -155 14 l-125 4 110 -9z" fill="#ffca00"/>
<path d="M838 1693 c7 -3 16 -2 19 1 4 3 -2 6 -13 5 -11 0 -14 -3 -6 -6z" fill="#ffca00"/>
<path d="M933 1683 c9 -2 25 -2 35 0 9 3 1 5 -18 5 -19 0 -27 -2 -17 -5z" fill="#ffca00"/>
<path d="M668 1673 c7 -3 16 -2 19 1 4 3 -2 6 -13 5 -11 0 -14 -3 -6 -6z" fill="#ffca00"/>
<path d="M1113 1673 c9 -2 23 -2 30 0 6 3 -1 5 -18 5 -16 0 -22 -2 -12 -5z" fill="#ffca00"/>
<path d="M713 1663 c9 -2 23 -2 30 0 6 3 -1 5 -18 5 -16 0 -22 -2 -12 -5z" fill="#ffca00"/>
<path d="M803 1663 c9 -2 25 -2 35 0 9 3 1 5 -18 5 -19 0 -27 -2 -17 -5z" fill="#ffca00"/>
<path d="M2015 1660 c50 -8 272 -13 264 -6 -2 2 -74 6 -159 9 -94 3 -135 2 -105 -3z" fill="#ffca00"/>
<path d="M933 1653 c9 -2 23 -2 30 0 6 3 -1 5 -18 5 -16 0 -22 -2 -12 -5z" fill="#ffca00"/>
<path d="M1048 1643 c6 -2 18 -2 25 0 6 3 1 5 -13 5 -14 0 -19 -2 -12 -5z" fill="#ffca00"/>
<path d="M2313 1643 c9 -2 23 -2 30 0 6 3 -1 5 -18 5 -16 0 -22 -2 -12 -5z" fill="#ffca00"/>
<path d="M673 1633 c15 -2 37 -2 50 0 12 2 0 4 -28 4 -27 0 -38 -2 -22 -4z" fill="#ffca00"/>
<path d="M1108 1633 c7 -3 16 -2 19 1 4 3 -2 6 -13 5 -11 0 -14 -3 -6 -6z" fill="#ffca00"/>
<path d="M1805 1590 c-14 -27 -33 -54 -44 -59 -18 -10 -68 -127 -58 -137 3 -3 25 -7 49 -8 65 -5 89 -14 133 -55 l40 -36 -33 35 c-17 20 -32 39 -32 42 0 3 17 1 38 -4 20 -5 46 -10 57 -10 11 0 36 -5 55 -11 19 -6 44 -12 55 -13 62 -9 113 -23 167 -45 41 -17 69 -19 230 -17 l183 2 -196 5 c-124 4 -201 10 -210 17 -8 7 -43 20 -79 29 -36 10 -73 22 -82 26 -9 5 -38 45 -65 88 -31 53 -59 86 -81 98 -18 10 -44 37 -58 61 -14 23 -29 42 -34 42 -5 0 -21 -22 -35 -50z m21 -37 c-7 -28 -9 -60 -5 -76 4 -17 3 -39 -4 -55 -11 -25 -16 -27 -57 -22 -25 3 -44 10 -43 15 6 34 45 105 57 105 9 0 25 18 36 40 11 22 22 40 24 40 2 0 -1 -21 -8 -47z m52 18 c3 -8 -1 -12 -9 -9 -7 2 -15 10 -17 17 -3 8 1 12 9 9 7 -2 15 -10 17 -17z m22 -31 c0 -5 8 -10 18 -10 9 0 23 -10 31 -21 12 -20 11 -21 -11 -16 -12 4 -33 7 -45 7 -15 0 -20 5 -19 18 2 9 -4 20 -13 24 -11 5 -8 7 12 7 15 1 27 -3 27 -9z m39 -56 c22 -5 30 -11 27 -20 -3 -8 1 -14 9 -14 8 0 15 -5 15 -11 0 -6 -8 -8 -17 -5 -10 3 -31 8 -48 13 l-30 7 30 7 c29 6 29 7 -7 8 -21 0 -38 6 -38 11 0 12 15 13 59 4z m75 -74 c14 -14 -21 -11 -69 6 l-40 14 50 -5 c27 -3 54 -10 59 -15z m20 -32 c37 -20 2 -19 -54 2 l-55 20 44 -5 c24 -3 53 -11 65 -17z" fill="#ffca00"/>
<path d="M2018 1623 c12 -2 32 -2 45 0 12 2 2 4 -23 4 -25 0 -35 -2 -22 -4z" fill="#ffca00"/>
<path d="M508 1613 c7 -3 16 -2 19 1 4 3 -2 6 -13 5 -11 0 -14 -3 -6 -6z" fill="#ffca00"/>
<path d="M2178 1613 c7 -3 16 -2 19 1 4 3 -2 6 -13 5 -11 0 -14 -3 -6 -6z" fill="#ffca00"/>
<path d="M588 1603 c18 -2 45 -2 60 0 15 2 0 4 -33 4 -33 0 -45 -2 -27 -4z" fill="#ffca00"/>
<path d="M1963 1593 c15 -2 37 -2 50 0 12 2 0 4 -28 4 -27 0 -38 -2 -22 -4z" fill="#ffca00"/>
<path d="M2308 1593 c17 -2 47 -2 65 0 17 2 3 4 -33 4 -36 0 -50 -2 -32 -4z" fill="#ffca00"/>
<path d="M2073 1583 c20 -2 54 -2 75 0 20 2 3 4 -38 4 -41 0 -58 -2 -37 -4z" fill="#ffca00"/>
<path d="M528 1573 c6 -2 18 -2 25 0 6 3 1 5 -13 5 -14 0 -19 -2 -12 -5z" fill="#ffca00"/>
<path d="M588 1563 c12 -2 30 -2 40 0 9 3 -1 5 -23 4 -22 0 -30 -2 -17 -4z" fill="#ffca00"/>
<path d="M828 1563 c17 -2 47 -2 65 0 17 2 3 4 -33 4 -36 0 -50 -2 -32 -4z" fill="#ffca00"/>
<path d="M713 1553 c9 -2 23 -2 30 0 6 3 -1 5 -18 5 -16 0 -22 -2 -12 -5z" fill="#ffca00"/>
<path d="M568 1533 c12 -2 32 -2 45 0 12 2 2 4 -23 4 -25 0 -35 -2 -22 -4z" fill="#ffca00"/>
<path d="M735 1530 c-33 -4 3 -5 80 -2 77 2 142 6 144 8 7 6 -157 1 -224 -6z" fill="#ffca00"/>
<path d="M2248 1523 c12 -2 32 -2 45 0 12 2 2 4 -23 4 -25 0 -35 -2 -22 -4z" fill="#ffca00"/>
<path d="M528 1503 c7 -3 16 -2 19 1 4 3 -2 6 -13 5 -11 0 -14 -3 -6 -6z" fill="#ffca00"/>
<path d="M2073 1503 c20 -2 54 -2 75 0 20 2 3 4 -38 4 -41 0 -58 -2 -37 -4z" fill="#ffca00"/>
<path d="M2468 1503 c34 -2 88 -2 120 0 31 2 3 3 -63 3 -66 0 -92 -1 -57 -3z" fill="#ffca00"/>
<path d="M660 1490 c-19 -4 19 -5 85 -2 66 2 122 6 124 8 8 7 -174 1 -209 -6z" fill="#ffca00"/>
<path d="M418 1473 c17 -2 47 -2 65 0 17 2 3 4 -33 4 -36 0 -50 -2 -32 -4z" fill="#ffca00"/>
<path d="M658 1463 c-27 -2 -48 -8 -48 -12 0 -8 26 -7 150 8 l65 8 -60 0 c-33 0 -81 -2 -107 -4z" fill="#ffca00"/>
<path d="M2103 1463 c15 -2 37 -2 50 0 12 2 0 4 -28 4 -27 0 -38 -2 -22 -4z" fill="#ffca00"/>
<path d="M2418 1443 c29 -2 74 -2 100 0 26 2 2 3 -53 3 -55 0 -76 -1 -47 -3z" fill="#ffca00"/>
<path d="M498 1433 c12 -2 30 -2 40 0 9 3 -1 5 -23 4 -22 0 -30 -2 -17 -4z" fill="#ffca00"/>
<path d="M833 1433 c9 -2 23 -2 30 0 6 3 -1 5 -18 5 -16 0 -22 -2 -12 -5z" fill="#ffca00"/>
<path d="M640 1423 c-25 -3 -49 -9 -55 -14 -6 -6 7 -7 35 -4 25 4 79 10 120 14 l75 8 -65 0 c-36 0 -85 -2 -110 -4z" fill="#ffca00"/>
<path d="M2143 1413 c26 -2 68 -2 95 0 26 2 4 3 -48 3 -52 0 -74 -1 -47 -3z" fill="#ffca00"/>
<path d="M378 1393 c28 -2 76 -2 105 0 28 2 5 3 -53 3 -58 0 -81 -1 -52 -3z" fill="#ffca00"/>
<path d="M818 1393 c6 -2 18 -2 25 0 6 3 1 5 -13 5 -14 0 -19 -2 -12 -5z" fill="#ffca00"/>
<path d="M2483 1393 c15 -2 37 -2 50 0 12 2 0 4 -28 4 -27 0 -38 -2 -22 -4z" fill="#ffca00"/>
<path d="M673 1383 c9 -2 23 -2 30 0 6 3 -1 5 -18 5 -16 0 -22 -2 -12 -5z" fill="#ffca00"/>
<path d="M2598 1383 c17 -2 47 -2 65 0 17 2 3 4 -33 4 -36 0 -50 -2 -32 -4z" fill="#ffca00"/>
<path d="M570 1372 c0 -4 18 -6 40 -4 22 2 40 6 40 8 0 2 -18 4 -40 4 -22 0 -40 -3 -40 -8z" fill="#ffca00"/>
<path d="M1670 1376 c0 -2 8 -10 18 -17 15 -13 16 -12 3 4 -13 16 -21 21 -21 13z" fill="#ffca00"/>
<path d="M2205 1370 c19 -8 103 -14 94 -6 -2 2 -29 6 -59 9 -34 3 -47 2 -35 -3z" fill="#ffca00"/>
<path d="M383 1353 c26 -2 67 -2 90 0 23 2 2 3 -48 3 -49 0 -68 -1 -42 -3z" fill="#ffca00"/>
<path d="M1780 1356 c0 -2 8 -10 18 -17 15 -13 16 -12 3 4 -13 16 -21 21 -21 13z" fill="#ffca00"/>
<path d="M592 1340 c-18 -4 -36 -10 -39 -14 -9 -8 3 -7 72 8 37 9 49 14 30 14 -16 0 -45 -4 -63 -8z" fill="#ffca00"/>
<path d="M2448 1333 c6 -2 18 -2 25 0 6 3 1 5 -13 5 -14 0 -19 -2 -12 -5z" fill="#ffca00"/>
<path d="M408 1323 c23 -2 59 -2 80 0 20 2 1 4 -43 4 -44 0 -61 -2 -37 -4z" fill="#ffca00"/>
<path d="M2273 1323 c9 -2 25 -2 35 0 9 3 1 5 -18 5 -19 0 -27 -2 -17 -5z" fill="#ffca00"/>
<path d="M2603 1323 c9 -2 23 -2 30 0 6 3 -1 5 -18 5 -16 0 -22 -2 -12 -5z" fill="#ffca00"/>
<path d="M0 1136 c0 -8 10 -16 23 -18 l22 -3 3 -382 2 -382 -22 -3 c-12 -2 -23 -9 -26 -15 -3 -10 27 -13 127 -13 130 0 161 9 106 30 l-25 10 0 163 0 164 94 6 c111 6 167 27 213 80 64 72 72 211 17 289 -55 79 -69 83 -316 86 -189 3 -218 1 -218 -12z m338 -63 c54 -40 67 -69 67 -146 0 -57 -5 -79 -23 -108 -27 -44 -79 -71 -130 -67 l-37 3 -3 160 c-1 87 0 166 3 173 8 20 90 10 123 -15z" fill="#ffca00"/>
<path d="M2671 1011 l-55 -6 -100 -324 c-109 -349 -109 -349 -171 -332 -22 5 -43 34 -106 141 -43 74 -79 137 -79 140 0 3 19 13 41 24 98 45 131 194 62 277 -51 60 -86 69 -290 69 -126 0 -183 -3 -183 -11 0 -6 9 -13 20 -16 19 -5 20 -14 20 -313 0 -299 -1 -308 -20 -313 -11 -3 -20 -10 -20 -16 0 -7 38 -11 115 -11 96 0 115 3 115 15 0 8 -9 15 -20 15 -19 0 -20 7 -20 140 0 140 0 140 23 140 20 0 32 -19 92 -155 l69 -155 178 0 c122 0 178 3 178 11 0 6 -9 13 -20 16 -26 7 -25 11 7 116 l26 88 95 -3 94 -3 29 -78 c43 -121 43 -115 18 -119 -12 -2 -24 -9 -27 -15 -3 -10 27 -13 127 -13 129 0 161 9 107 30 -26 9 -18 -10 -160 390 l-83 235 24 9 c12 6 23 16 23 23 0 14 -14 14 -109 4z m-570 -67 c52 -26 75 -127 45 -197 -22 -52 -59 -79 -116 -85 l-50 -5 0 150 c0 82 3 153 7 157 10 9 81 -3 114 -20z m564 -238 c19 -53 35 -101 35 -106 0 -6 -34 -10 -76 -10 -67 0 -75 2 -70 18 28 92 59 189 63 195 8 13 10 8 48 -97z" fill="#ffca00"/>
<path d="M640 990 c0 -6 11 -15 25 -20 l25 -10 0 -304 0 -305 -22 -3 c-12 -2 -23 -9 -26 -15 -3 -10 47 -13 226 -13 l230 0 6 31 c10 54 7 69 -14 69 -13 0 -25 -12 -34 -35 l-15 -35 -100 0 -101 0 0 155 0 155 65 0 c60 0 66 -2 77 -25 19 -42 28 -28 28 40 0 40 -4 65 -11 65 -6 0 -13 -9 -16 -20 -5 -18 -14 -20 -74 -20 l-69 0 0 130 0 130 94 0 94 0 6 -35 c9 -47 33 -46 41 3 3 20 8 45 10 55 3 16 -13 17 -221 17 -146 0 -224 -4 -224 -10z" fill="#ffca00"/>
<path d="M1180 983 c0 -10 -3 -35 -6 -55 -9 -50 16 -52 39 -3 17 35 17 35 82 35 l65 0 0 -304 0 -305 -22 -3 c-12 -2 -23 -9 -26 -15 -3 -10 25 -13 117 -13 101 0 121 2 121 15 0 8 -9 15 -20 15 -20 0 -20 7 -20 305 l0 305 63 0 c63 0 64 -1 83 -35 20 -37 60 -51 50 -17 -3 9 -8 34 -12 55 l-6 37 -254 0 c-235 0 -254 -1 -254 -17z" fill="#ffca00"/>
<path d="M1588 139 c-61 -23 -52 -108 15 -132 14 -5 17 0 17 28 0 19 -5 35 -11 35 -6 0 -9 -9 -6 -20 7 -29 -21 -26 -34 4 -13 29 1 61 31 71 11 3 20 11 20 16 0 5 -1 9 -2 8 -2 0 -15 -5 -30 -10z" fill="#ffca00"/>
<path d="M1035 126 c-13 -9 -19 -26 -19 -51 0 -44 22 -65 70 -65 23 0 38 7 48 22 34 48 7 108 -48 108 -18 0 -41 -6 -51 -14z m77 -13 c24 -21 23 -55 -3 -79 -19 -17 -23 -17 -47 -3 -36 20 -41 61 -10 83 28 20 37 20 60 -1z" fill="#ffca00"/>
<path d="M1070 70 c0 -5 5 -10 10 -10 6 0 10 5 10 10 0 6 -4 10 -10 10 -5 0 -10 -4 -10 -10z" fill="#ffca00"/>
<path d="M1250 75 c0 -37 4 -65 10 -65 6 0 10 8 10 18 1 16 1 16 11 0 5 -10 17 -18 26 -18 13 0 13 3 3 15 -11 13 -11 20 0 40 19 35 0 75 -35 75 -24 0 -25 -2 -25 -65z m45 15 c0 -13 -6 -25 -12 -27 -9 -3 -13 6 -13 27 0 21 4 30 13 28 6 -3 12 -15 12 -28z" fill="#ffca00"/>
<path d="M1420 130 c0 -5 5 -10 10 -10 6 0 10 5 10 10 0 6 -4 10 -10 10 -5 0 -10 -4 -10 -10z" fill="#ffca00"/>
<path d="M1730 75 l0 -65 30 0 c17 0 30 5 30 10 0 6 -9 10 -20 10 -15 0 -20 7 -20 25 0 18 5 25 20 25 11 0 20 5 20 10 0 6 -9 10 -20 10 -27 0 -25 18 3 30 20 8 19 9 -10 9 l-33 1 0 -65z" fill="#ffca00"/>
<path d="M1900 75 c0 -36 3 -65 8 -65 4 0 6 18 4 40 -4 41 4 50 26 28 9 -9 12 -9 12 0 0 7 5 12 10 12 6 0 10 -18 10 -40 0 -22 5 -40 10 -40 6 0 10 28 10 65 0 36 -3 65 -6 65 -3 0 -14 -10 -23 -22 -18 -22 -41 -18 -41 8 0 8 -4 14 -10 14 -6 0 -10 -28 -10 -65z" fill="#ffca00"/>
<path d="M1420 60 c0 -27 5 -50 10 -50 6 0 10 23 10 50 0 28 -4 50 -10 50 -5 0 -10 -22 -10 -50z" fill="#ffca00"/>
<path d="M20 79 c-31 -9 20 -10 472 -14 191 -1 353 2 360 6 7 5 -36 9 -102 10 -423 5 -709 5 -730 -2z" fill="#ffca00"/>
<path d="M2217 82 c-43 -2 -76 -6 -73 -10 2 -4 159 -6 348 -6 458 2 520 4 486 14 -24 7 -580 9 -761 2z" fill="#ffca00"/>
</g>
</svg>