<svg xmlns="http://www.w3.org/2000/svg" version="1.0" width="577.000000pt" height="577.000000pt" viewBox="0 0 577.000000 577.000000" preserveAspectRatio="xMidYMid meet">

<g transform="translate(0.000000,577.000000) scale(0.100000,-0.100000)" fill="#ffca00" stroke="none">
<path d="M1340 3650 l0 -1550 1545 0 1545 0 0 1550 0 1550 -1545 0 -1545 0 0 -1550z m2980 0 l0 -1440 -1435 0 c-1141 0 -1435 3 -1435 13 0 8 0 2800 0 2860 0 4 646 7 1435 7 l1435 0 0 -1440z" fill="#ffca00"/>
<path d="M1560 4535 l0 -435 440 0 440 0 0 435 0 435 -440 0 -440 0 0 -435z" fill="#ffca00"/>
<path d="M3330 4535 l0 -435 440 0 440 0 0 435 0 435 -440 0 -440 0 0 -435z" fill="#ffca00"/>
<path d="M2440 3650 l0 -440 445 0 445 0 0 440 0 440 -445 0 -445 0 0 -440z" fill="#ffca00"/>
<path d="M1560 2765 l0 -435 440 0 440 0 0 435 0 435 -440 0 -440 0 0 -435z" fill="#ffca00"/>
<path d="M3330 2765 l0 -435 440 0 440 0 0 435 0 435 -440 0 -440 0 0 -435z" fill="#ffca00"/>
<path d="M4703 2351 c-48 -22 -73 -62 -73 -116 0 -99 91 -157 183 -117 100 45 102 188 3 233 -51 23 -61 23 -113 0z m135 -47 c86 -90 -23 -223 -134 -164 -69 37 -70 154 -2 187 59 29 91 24 136 -23z" fill="#ffca00"/>
<path d="M4690 2235 c0 -60 3 -75 15 -75 10 0 15 10 15 30 0 18 5 30 13 30 7 0 23 -13 35 -30 13 -16 29 -30 37 -30 20 0 19 13 -6 44 -11 14 -16 26 -10 26 19 0 33 38 21 60 -9 16 -21 20 -65 20 l-55 0 0 -75z m74 49 c28 -11 18 -34 -14 -34 -30 0 -43 23 -17 33 6 3 13 6 14 6 1 1 8 -2 17 -5z" fill="#ffca00"/>
<path d="M325 1974 c-96 -5 -115 -11 -115 -33 0 -15 13 -23 55 -36 94 -27 90 -1 90 -565 0 -528 -1 -537 -56 -565 -15 -8 -35 -15 -43 -15 -8 0 -22 -7 -31 -16 -12 -12 -13 -19 -4 -30 16 -20 441 -21 457 -1 18 21 -2 38 -53 48 -108 20 -105 4 -105 607 0 586 -7 543 94 543 112 0 205 -51 246 -136 46 -96 43 -235 -8 -329 -33 -60 -96 -108 -179 -137 -47 -15 -63 -25 -63 -39 0 -27 27 -32 108 -20 116 16 179 45 248 114 75 76 99 140 98 261 -1 105 -35 186 -106 250 -52 47 -106 69 -208 84 -76 12 -323 20 -425 15z" fill="#ffca00"/>
<path d="M5256 1749 c-17 -13 -26 -30 -26 -49 0 -29 38 -70 65 -70 27 0 65 41 65 70 0 29 -38 70 -65 70 -7 0 -24 -9 -39 -21z m84 -20 c7 -11 9 -33 5 -47 -6 -25 -8 -26 -19 -9 -7 9 -11 28 -9 41 4 21 1 25 -23 29 -29 4 -29 4 3 6 24 1 35 -5 43 -20z m-80 -31 c-1 -35 -3 -40 -11 -25 -10 17 -5 67 6 67 3 0 5 -19 5 -42z m47 16 c-3 -3 -12 -4 -19 -1 -8 3 -5 6 6 6 11 1 17 -2 13 -5z m-2 -44 c18 -20 17 -20 -8 -20 -20 0 -24 4 -20 20 3 11 6 20 8 20 1 0 10 -9 20 -20z" fill="#ffca00"/>
<path d="M5057 1730 c-24 -21 -38 -45 -46 -77 -20 -79 -239 -683 -295 -815 -17 -40 -59 -78 -86 -78 -24 0 -46 -28 -33 -41 6 -6 67 -8 149 -7 116 3 139 6 139 18 0 8 -15 20 -35 26 -19 6 -39 18 -44 27 -12 19 77 306 101 325 11 8 56 12 134 12 96 0 121 -3 138 -17 25 -20 103 -261 99 -303 -2 -17 -14 -30 -38 -41 -19 -9 -35 -23 -35 -30 0 -19 336 -21 342 -2 3 7 -8 18 -24 24 -61 25 -71 32 -91 68 -17 32 -189 546 -272 816 -29 96 -44 125 -61 125 -5 0 -24 -13 -42 -30z m55 -374 c27 -81 46 -152 42 -157 -9 -15 -212 -11 -217 4 -4 13 80 274 96 295 6 7 15 11 21 9 6 -2 32 -70 58 -151z" fill="#ffca00"/>
<path d="M1114 1729 c-9 -15 14 -37 46 -44 15 -3 36 -15 46 -27 17 -18 19 -48 25 -352 5 -276 9 -340 23 -385 46 -141 128 -207 287 -232 210 -33 377 46 439 207 22 55 24 80 31 344 7 283 14 380 30 411 5 9 23 22 41 29 45 18 58 29 51 46 -4 11 -36 14 -165 13 -154 0 -159 -1 -156 -21 2 -14 17 -25 53 -36 75 -25 77 -35 73 -397 -3 -285 -4 -303 -26 -356 -46 -115 -127 -169 -257 -169 -122 0 -196 44 -244 143 -36 75 -42 142 -39 446 3 321 2 314 71 337 21 7 33 18 35 32 3 22 2 22 -177 21 -104 0 -183 -5 -187 -10z" fill="#ffca00"/>
<path d="M2265 1733 c-71 -8 -81 -44 -15 -58 60 -13 60 -14 60 -458 0 -388 -1 -405 -20 -430 -11 -14 -35 -28 -54 -31 -37 -7 -51 -27 -33 -45 18 -18 341 -15 356 3 10 11 7 17 -11 30 -12 9 -30 16 -39 16 -9 0 -24 9 -35 21 -16 17 -19 42 -22 174 -6 203 -5 205 59 205 65 0 71 -6 216 -231 155 -241 188 -280 264 -318 51 -25 74 -31 129 -31 47 0 71 4 80 15 15 19 5 35 -24 35 -67 0 -193 151 -393 469 -29 47 -53 88 -53 92 0 4 27 28 59 53 78 60 116 133 116 221 -1 78 -19 128 -63 177 -48 53 -98 77 -185 88 -70 9 -312 11 -392 3z m398 -89 c130 -90 126 -332 -7 -401 -42 -22 -183 -24 -196 -3 -5 8 -10 102 -10 209 0 238 -1 236 103 228 55 -3 77 -10 110 -33z" fill="#ffca00"/>
<path d="M3105 1730 c-10 -16 12 -38 45 -45 15 -3 36 -15 46 -27 18 -18 19 -47 24 -372 7 -492 4 -516 -76 -531 -38 -7 -56 -32 -33 -46 18 -11 340 -11 358 0 23 14 5 39 -33 46 -74 14 -71 -2 -71 465 0 470 -4 445 76 469 29 9 39 17 37 29 -3 15 -24 17 -185 20 -121 2 -184 -1 -188 -8z" fill="#ffca00"/>
<path d="M3593 1725 c-7 -21 0 -27 55 -46 26 -8 55 -27 66 -43 20 -27 21 -39 21 -424 0 -302 -3 -402 -13 -419 -7 -13 -29 -27 -53 -33 -43 -12 -61 -36 -38 -51 8 -5 82 -8 164 -6 142 2 150 3 150 22 0 15 -12 23 -48 33 -78 22 -79 29 -81 407 -1 247 2 320 11 320 13 0 537 -618 622 -733 32 -44 52 -62 65 -60 19 3 19 18 21 453 1 259 6 463 11 480 7 21 24 37 59 56 28 14 49 28 48 32 -2 4 -3 12 -3 17 0 6 -60 10 -159 10 -128 0 -160 -3 -164 -14 -7 -18 8 -30 59 -44 67 -19 68 -26 72 -371 2 -167 0 -307 -5 -312 -4 -4 -13 -5 -19 -1 -13 9 -415 478 -486 568 -31 39 -70 94 -88 122 l-32 52 -114 0 c-94 0 -116 -3 -121 -15z" fill="#ffca00"/>
</g>
</svg>